<svg xmlns="http://www.w3.org/2000/svg" viewBox="0 0 704 326" width="704" height="326">
<rect width="100%" height="100%" fill="#fff"/>
<g stroke="#000" stroke-linecap="round" stroke-linejoin="round">
<line x1="55.5" y1="234.5" x2="76.2" y2="246.5" stroke-width="4.5"/>
<line x1="39.0" y1="206.0" x2="39.0" y2="182.0" stroke-width="4.5"/>
<line x1="55.5" y1="172.5" x2="76.2" y2="184.5" stroke-width="4.5"/>
<line x1="39.0" y1="144.0" x2="39.0" y2="120.0" stroke-width="4.5"/>
<line x1="162.8" y1="48.5" x2="183.6" y2="60.5" stroke-width="4.5"/>
<line x1="129.9" y1="48.5" x2="109.1" y2="60.5" stroke-width="4.5"/>
<line x1="109.1" y1="79.5" x2="129.9" y2="91.5" stroke-width="4.5"/>
<line x1="76.2" y1="79.5" x2="55.5" y2="91.5" stroke-width="4.5"/>
<line x1="55.5" y1="110.5" x2="76.2" y2="122.5" stroke-width="7.0"/>
<line x1="109.1" y1="265.5" x2="129.9" y2="277.5" stroke-width="4.5"/>
<line x1="92.7" y1="237.0" x2="92.7" y2="213.0" stroke-width="4.5"/>
<line x1="109.1" y1="203.5" x2="129.9" y2="215.5" stroke-width="4.5"/>
<line x1="92.7" y1="175.0" x2="92.7" y2="151.0" stroke-width="4.5"/>
<line x1="216.5" y1="79.5" x2="237.3" y2="91.5" stroke-width="4.5"/>
<line x1="183.6" y1="79.5" x2="162.8" y2="91.5" stroke-width="4.5"/>
<line x1="162.8" y1="110.5" x2="183.6" y2="122.5" stroke-width="4.5"/>
<line x1="129.9" y1="110.5" x2="109.1" y2="122.5" stroke-width="4.5"/>
<line x1="109.1" y1="141.5" x2="129.9" y2="153.5" stroke-width="7.0"/>
<line x1="253.8" y1="206.0" x2="253.8" y2="182.0" stroke-width="4.5"/>
<line x1="237.3" y1="234.5" x2="216.5" y2="246.5" stroke-width="4.5"/>
<line x1="200.1" y1="237.0" x2="200.1" y2="213.0" stroke-width="4.5"/>
<line x1="183.6" y1="265.5" x2="162.8" y2="277.5" stroke-width="4.5"/>
<line x1="146.4" y1="268.0" x2="146.4" y2="244.0" stroke-width="7.0"/>
<line x1="253.8" y1="144.0" x2="253.8" y2="120.0" stroke-width="4.5"/>
<line x1="237.3" y1="172.5" x2="216.5" y2="184.5" stroke-width="4.5"/>
<line x1="200.1" y1="175.0" x2="200.1" y2="151.0" stroke-width="4.5"/>
<line x1="183.6" y1="203.5" x2="162.8" y2="215.5" stroke-width="4.5"/>
<line x1="146.4" y1="206.0" x2="146.4" y2="182.0" stroke-width="7.0"/>
<line x1="237.3" y1="110.5" x2="216.5" y2="122.5" stroke-width="7.0"/>
<line x1="183.6" y1="141.5" x2="162.8" y2="153.5" stroke-width="7.0"/>
<circle cx="39.0" cy="225.0" r="15" fill="#fff" stroke="#000" stroke-width="2.5"/>
<line x1="25.2" y1="225.0" x2="52.8" y2="225.0" stroke="#000" stroke-width="2.5" stroke-linecap="butt"/>
<circle cx="39.0" cy="163.0" r="15" fill="#000" stroke="#000" stroke-width="2.5"/>
<line x1="25.2" y1="163.0" x2="52.8" y2="163.0" stroke="#fff" stroke-width="2.5" stroke-linecap="butt"/>
<circle cx="146.4" cy="39.0" r="15" fill="#fff" stroke="#000" stroke-width="2.5"/>
<line x1="132.6" y1="39.0" x2="160.1" y2="39.0" stroke="#000" stroke-width="2.5" stroke-linecap="butt"/>
<circle cx="92.7" cy="70.0" r="15" fill="#000" stroke="#000" stroke-width="2.5"/>
<line x1="78.9" y1="70.0" x2="106.4" y2="70.0" stroke="#fff" stroke-width="2.5" stroke-linecap="butt"/>
<circle cx="39.0" cy="101.0" r="15" fill="#fff" stroke="#000" stroke-width="2.5"/>
<line x1="25.2" y1="101.0" x2="52.8" y2="101.0" stroke="#000" stroke-width="2.5" stroke-linecap="butt"/>
<circle cx="92.7" cy="256.0" r="15" fill="#000" stroke="#000" stroke-width="2.5"/>
<line x1="78.9" y1="256.0" x2="106.4" y2="256.0" stroke="#fff" stroke-width="2.5" stroke-linecap="butt"/>
<circle cx="92.7" cy="194.0" r="15" fill="#fff" stroke="#000" stroke-width="2.5"/>
<line x1="78.9" y1="194.0" x2="106.4" y2="194.0" stroke="#000" stroke-width="2.5" stroke-linecap="butt"/>
<circle cx="200.1" cy="70.0" r="15" fill="#000" stroke="#000" stroke-width="2.5"/>
<line x1="186.3" y1="70.0" x2="213.8" y2="70.0" stroke="#fff" stroke-width="2.5" stroke-linecap="butt"/>
<circle cx="146.4" cy="101.0" r="15" fill="#fff" stroke="#000" stroke-width="2.5"/>
<line x1="132.6" y1="101.0" x2="160.1" y2="101.0" stroke="#000" stroke-width="2.5" stroke-linecap="butt"/>
<circle cx="92.7" cy="132.0" r="15" fill="#000" stroke="#000" stroke-width="2.5"/>
<line x1="78.9" y1="132.0" x2="106.4" y2="132.0" stroke="#fff" stroke-width="2.5" stroke-linecap="butt"/>
<circle cx="253.8" cy="225.0" r="15" fill="#fff" stroke="#000" stroke-width="2.5"/>
<line x1="240.0" y1="225.0" x2="267.5" y2="225.0" stroke="#000" stroke-width="2.5" stroke-linecap="butt"/>
<circle cx="200.1" cy="256.0" r="15" fill="#000" stroke="#000" stroke-width="2.5"/>
<line x1="186.3" y1="256.0" x2="213.8" y2="256.0" stroke="#fff" stroke-width="2.5" stroke-linecap="butt"/>
<circle cx="146.4" cy="287.0" r="15" fill="#fff" stroke="#000" stroke-width="2.5"/>
<line x1="132.6" y1="287.0" x2="160.1" y2="287.0" stroke="#000" stroke-width="2.5" stroke-linecap="butt"/>
<circle cx="253.8" cy="163.0" r="15" fill="#000" stroke="#000" stroke-width="2.5"/>
<line x1="240.0" y1="163.0" x2="267.5" y2="163.0" stroke="#fff" stroke-width="2.5" stroke-linecap="butt"/>
<circle cx="200.1" cy="194.0" r="15" fill="#fff" stroke="#000" stroke-width="2.5"/>
<line x1="186.3" y1="194.0" x2="213.8" y2="194.0" stroke="#000" stroke-width="2.5" stroke-linecap="butt"/>
<circle cx="146.4" cy="225.0" r="15" fill="#000" stroke="#000" stroke-width="2.5"/>
<line x1="132.6" y1="225.0" x2="160.1" y2="225.0" stroke="#fff" stroke-width="2.5" stroke-linecap="butt"/>
<circle cx="253.8" cy="101.0" r="15" fill="#fff" stroke="#000" stroke-width="2.5"/>
<line x1="240.0" y1="101.0" x2="267.5" y2="101.0" stroke="#000" stroke-width="2.5" stroke-linecap="butt"/>
<circle cx="200.1" cy="132.0" r="15" fill="#000" stroke="#000" stroke-width="2.5"/>
<line x1="186.3" y1="132.0" x2="213.8" y2="132.0" stroke="#fff" stroke-width="2.5" stroke-linecap="butt"/>
<circle cx="146.4" cy="163.0" r="15" fill="#fff" stroke="#000" stroke-width="2.5"/>
<line x1="132.6" y1="163.0" x2="160.1" y2="163.0" stroke="#000" stroke-width="2.5" stroke-linecap="butt"/>
<path d="M368.7,126.0 C358.9,104.8 310.3,104.8 310.3,136.1 C310.3,165.2 370.7,157.4 370.7,189.9 C370.7,222.4 318.7,222.4 307.6,201.1" fill="none" stroke-width="15"/>
<path d="M402.2,219.0 L445.9,107.0 L489.6,219.0 M419.7,180.9 L472.1,180.9" fill="none" stroke-width="15"/>
<path d="M517.6,107.0 L517.6,219.0 L573.6,219.0" fill="none" stroke-width="15"/>
<path d="M596.0,107.0 L669.9,107.0 M632.9,107.0 L632.9,219.0" fill="none" stroke-width="15"/>
</g>
</svg>